<svg xmlns="http://www.w3.org/2000/svg" viewBox="0 0 256 259"><path d="M127.779 0C57.891 0 .48 55.394.006 124.724l68.568 28.33a36.142 36.142 0 0 1 20.382-6.263c.681 0 1.353.03 2.017.068l30.5-44.17v-.618c0-25.873 21.065-46.937 46.94-46.937 25.874 0 46.94 21.064 46.94 46.937 0 25.873-21.066 46.938-46.94 46.938h-1.1l-43.455 31.01c0 .587.034 1.172.034 1.66 0 19.39-15.78 35.17-35.175 35.17-17.283 0-31.696-12.493-34.627-28.924L.591 166.34C12.85 218.317 59.65 256.86 115.414 258.84l12.365.082c70.68 0 127.998-57.315 127.998-128.006S198.46 0 127.779 0" fill="#1b2838"/><path d="M80.404 193.947l-15.703-6.494c2.796 5.79 7.62 10.508 13.846 12.782a26.388 26.388 0 0 0 34.392-14.855 26.212 26.212 0 0 0-.037-20.16 26.296 26.296 0 0 0-13.987-14.156 26.41 26.41 0 0 0-19.274-.662l16.222 6.71a19.383 19.383 0 0 1-14.88 35.785l-.58-.95zm88.008-91.875a31.287 31.287 0 0 0-31.263-31.26 31.287 31.287 0 0 0-31.261 31.26 31.287 31.287 0 0 0 31.261 31.262 31.287 31.287 0 0 0 31.263-31.262m-8.496-.036a22.828 22.828 0 0 1-22.8 22.803 22.828 22.828 0 0 1-22.803-22.803 22.828 22.828 0 0 1 22.803-22.8 22.828 22.828 0 0 1 22.8 22.8" fill="#fff"/></svg>
